<?xml version="1.0" encoding="UTF-8"?>
<svg version="1.1" xmlns="http://www.w3.org/2000/svg" width="335" height="337">
<path d="M0 0 C1.21512268 0.00707474 2.43024536 0.01414948 3.68218994 0.0214386 C7.56479342 0.04943619 11.44595708 0.11219029 15.328125 0.17578125 C17.9596146 0.20085692 20.59112679 0.22367135 23.22265625 0.24414062 C29.67497076 0.29928085 36.12644503 0.3829631 42.578125 0.48828125 C41.68155283 4.78715499 39.47376289 7.92013474 37.015625 11.48828125 C36.18078751 12.71731068 35.34615959 13.94648249 34.51171875 15.17578125 C33.81550415 16.1961145 33.81550415 16.1961145 33.10522461 17.23706055 C31.42528918 19.71358885 29.76634167 22.20335637 28.109375 24.6953125 C21.99277061 33.88209669 15.81266336 43.02619288 9.640625 52.17578125 C8.67777084 53.60351364 8.67777084 53.60351364 7.69546509 55.06008911 C-0.55952265 67.29994163 -8.82426713 79.53285726 -17.14624023 91.72729492 C-20.9470168 97.30000976 -24.70094215 102.90202514 -28.43774414 108.51782227 C-31.50642329 113.11196761 -34.61804744 117.6763758 -37.734375 122.23828125 C-38.38172607 123.18711182 -39.02907715 124.13594238 -39.69604492 125.11352539 C-43.52831776 130.72721555 -47.37589932 136.3300838 -51.234375 141.92578125 C-56.37927467 149.3923662 -61.41051649 156.93165036 -66.421875 164.48828125 C-73.21867291 174.73591483 -80.07017691 184.94439399 -86.984375 195.11328125 C-87.65605713 196.10118652 -88.32773926 197.0890918 -89.01977539 198.10693359 C-92.44911684 203.14355985 -95.89019932 208.17167288 -99.34654236 213.18978882 C-105.5897619 222.25480289 -111.76518622 231.36433842 -117.921875 240.48828125 C-124.14207961 249.70635176 -130.38499911 258.90688857 -136.69482422 268.06390381 C-139.81392458 272.59376082 -142.89533943 277.14593387 -145.921875 281.73828125 C-147.41113192 283.99603292 -148.91111847 286.24469507 -150.421875 288.48828125 C-150.84890213 289.20304626 -151.27592926 289.91781128 -151.71589661 290.65423584 C-153.421875 292.48828125 -153.421875 292.48828125 -155.87065125 292.96929932 C-156.8410585 292.96041687 -157.81146576 292.95153442 -158.8112793 292.94238281 C-159.91219406 292.94208069 -161.01310883 292.94177856 -162.14738464 292.94146729 C-163.33495865 292.92082214 -164.52253265 292.900177 -165.74609375 292.87890625 C-166.96263138 292.87324646 -168.17916901 292.86758667 -169.43257141 292.86175537 C-173.32523644 292.83933159 -177.2169873 292.78912138 -181.109375 292.73828125 C-183.74542943 292.71822414 -186.38149827 292.699972 -189.01757812 292.68359375 C-195.48598998 292.63944697 -201.95386719 292.57247412 -208.421875 292.48828125 C-207.6347809 288.96571448 -206.38272465 286.66008482 -204.32421875 283.671875 C-203.69185303 282.74882568 -203.0594873 281.82577637 -202.40795898 280.87475586 C-201.73192627 279.90159424 -201.05589355 278.92843262 -200.359375 277.92578125 C-199.66980713 276.92361572 -198.98023926 275.9214502 -198.26977539 274.88891602 C-194.45131146 269.35631589 -190.55311693 263.89518465 -186.55859375 258.48828125 C-181.57659476 251.49344537 -176.90529175 244.27892368 -172.16503906 237.11914062 C-169.63396509 233.29913318 -167.09065778 229.48733225 -164.546875 225.67578125 C-161.31232449 220.82692198 -158.08089113 215.97603088 -154.85546875 211.12109375 C-146.77727533 198.97064531 -138.62940234 186.8700352 -130.43688965 174.79653931 C-123.2034268 164.13526414 -116.02216634 153.44090329 -108.89599609 142.70751953 C-106.61746304 139.27726688 -104.33208444 135.8515881 -102.046875 132.42578125 C-101.33789062 131.36230469 -100.62890625 130.29882812 -99.8984375 129.203125 C-99.52340088 128.64085205 -99.14836426 128.0785791 -98.76196289 127.49926758 C-97.72107796 125.93727648 -96.68145174 124.37444657 -95.64233398 122.8112793 C-90.88068073 115.65454297 -86.07285286 108.53076617 -81.234375 101.42578125 C-80.13017212 99.802771 -80.13017212 99.802771 -79.00366211 98.14697266 C-74.50994846 91.54366703 -70.00110322 84.95085844 -65.484375 78.36328125 C-60.06112044 70.45021452 -54.72199767 62.48419351 -49.421875 54.48828125 C-43.43991616 45.46373201 -37.38868431 36.49177724 -31.25878906 27.56689453 C-27.33610574 21.84815769 -23.46860307 16.09556212 -19.66796875 10.29492188 C-18.60322439 8.6811687 -17.51325185 7.08414353 -16.421875 5.48828125 C-15.75055542 4.16993286 -15.75055542 4.16993286 -15.06567383 2.82495117 C-10.6710789 -1.05912566 -5.6512809 -0.12334049 0 0 Z " fill="#04DFFC" transform="translate(261.421875,31.51171875)"/>
<path d="M0 0 C2.50441742 0.37822226 3.73748461 0.72800068 5.52050781 2.57543945 C5.99327148 3.24792725 6.46603516 3.92041504 6.953125 4.61328125 C7.48574951 5.36053467 8.01837402 6.10778809 8.56713867 6.87768555 C9.12248291 7.68117432 9.67782715 8.48466309 10.25 9.3125 C10.82919189 10.13339111 11.40838379 10.95428223 12.00512695 11.80004883 C16.44991717 18.12625799 20.76442898 24.53205387 25 31 C26.62068523 33.44038194 28.24804859 35.87629264 29.875 38.3125 C30.71886311 39.57804959 31.56261226 40.84367517 32.40625 42.109375 C33.04240234 43.06360352 33.04240234 43.06360352 33.69140625 44.03710938 C42.7734375 57.66015625 42.7734375 57.66015625 43.89355469 59.35205078 C45.00033552 61.00049973 46.1448048 62.6234348 47.2890625 64.24609375 C49 67 49 67 49 70 C42.72036682 70.25436226 36.44206736 70.42898665 30.15844727 70.54931641 C28.02317681 70.59948952 25.88824798 70.66764925 23.75415039 70.75439453 C6.16241961 71.45134029 6.16241961 71.45134029 1.34057617 68.21508789 C-0.50826997 65.57845614 -1.70102912 62.9449897 -3 60 C-4.53148185 57.72928136 -6.08618531 55.50885396 -7.69140625 53.29296875 C-8.50182142 52.12043843 -9.30844778 50.94528066 -10.11132812 49.76757812 C-11.34596458 47.95884191 -12.58536228 46.15498447 -13.8449707 44.36352539 C-15.08221484 42.60141854 -16.29498894 40.82458675 -17.50390625 39.04296875 C-18.22392822 38.00164795 -18.9439502 36.96032715 -19.68579102 35.88745117 C-21 33 -21 33 -20.36572266 30.34960938 C-19.17521889 28.30144916 -18.00156058 26.30439626 -16.64453125 24.36328125 C-16.18997559 23.7079541 -15.73541992 23.05262695 -15.26708984 22.37744141 C-14.7870752 21.69601074 -14.30706055 21.01458008 -13.8125 20.3125 C-13.32217285 19.60786621 -12.8318457 18.90323242 -12.32666016 18.17724609 C-10.88964655 16.11445907 -9.446116 14.05641291 -8 12 C-6.88818359 10.41638672 -6.88818359 10.41638672 -5.75390625 8.80078125 C-4.58656484 7.13835117 -3.41649563 5.47782876 -2.2421875 3.8203125 C-0.95419252 2.02068459 -0.95419252 2.02068459 0 0 Z " fill="#FCFCFC" transform="translate(208,192)"/>
<path d="M0 0 C6.04556391 -0.44870019 12.081288 -0.77301595 18.13964844 -0.98876953 C20.19344851 -1.07872404 22.24611334 -1.20116962 24.29589844 -1.35791016 C40.80053994 -2.58732114 40.80053994 -2.58732114 46.05108643 1.65866089 C49.78174175 5.92384226 52.3886598 10.74074729 54.88574219 15.80126953 C56.31465483 18.62089863 58.04349836 21.16030168 59.8671875 23.73828125 C60.87124174 25.26206634 61.87393561 26.78674904 62.875 28.3125 C63.40996094 29.09560547 63.94492188 29.87871094 64.49609375 30.68554688 C68.09055808 36.21801874 68.09055808 36.21801874 67.7109375 39.49609375 C66.86402344 40.73552734 66.86402344 40.73552734 66 42 C65.56864746 42.63397705 65.13729492 43.2679541 64.69287109 43.92114258 C63.08743153 46.23086245 61.42686745 48.49166844 59.75 50.75 C55.33759806 56.73463711 51.0710662 62.77692605 47 69 C42.60489102 67.08450932 40.74606496 64.07154034 38.25 60.125 C37.35551814 58.74736377 36.46098637 57.36975993 35.56640625 55.9921875 C35.12828613 55.30995117 34.69016602 54.62771484 34.23876953 53.92480469 C32.58103357 51.3490084 30.88743805 48.79810246 29.1875 46.25 C28.54941406 45.29222656 27.91132812 44.33445313 27.25390625 43.34765625 C23.8570717 38.28297123 20.39251492 33.26412117 16.94287109 28.23535156 C11.89502128 20.86758244 6.93320858 13.44484216 2 6 C1.34 5.01 0.68 4.02 0 3 C0 2.01 0 1.02 0 0 Z " fill="#FBFBFB" transform="translate(99,98)"/>
<path d="M0 0 C0.33 0.66 0.66 1.32 1 2 C0.109375 4.09375 0.109375 4.09375 -1.25 6.5 C-1.68828125 7.2940625 -2.1265625 8.088125 -2.578125 8.90625 C-4 11 -4 11 -7 13 C-8.12683458 14.77460028 -8.12683458 14.77460028 -9.125 16.875 C-11.8450499 22.00092991 -15.24855882 26.44443051 -18.81640625 31.0078125 C-21.48579871 34.54939054 -21.48579871 34.54939054 -25 41 C-7.84 41 9.32 41 27 41 C27.495 40.01 27.495 40.01 28 39 C27.67 40.32 27.34 41.64 27 43 C8.85 43 -9.3 43 -28 43 C-27.04358476 39.17433904 -26.08934756 37.35833629 -23.90234375 34.18359375 C-23.26917236 33.25933594 -22.63600098 32.33507812 -21.98364258 31.3828125 C-20.970802 29.92488281 -20.970802 29.92488281 -19.9375 28.4375 C-19.25518311 27.44621094 -18.57286621 26.45492188 -17.86987305 25.43359375 C-13.83326906 19.58664861 -9.74273878 13.78797011 -5.51953125 8.07421875 C-3.58823402 5.43792356 -1.77814459 2.74130625 0 0 Z " fill="#1ABCCF" transform="translate(81,281)"/>
<path d="M0 0 C0 3.95652008 -1.82322541 6.05405916 -4 9.1875 C-4.92238907 10.54261898 -5.84422523 11.89811441 -6.765625 13.25390625 C-7.27931641 14.00559082 -7.79300781 14.75727539 -8.32226562 15.53173828 C-11.49960146 20.20619481 -14.61950935 24.91910498 -17.75 29.625 C-19.11956547 31.67983828 -20.4893588 33.73452471 -21.859375 35.7890625 C-22.54193359 36.81290039 -23.22449219 37.83673828 -23.92773438 38.89160156 C-26.0078125 42.01171875 -26.0078125 42.01171875 -28.08789062 45.13183594 C-28.76529297 46.14793945 -29.44269531 47.16404297 -30.140625 48.2109375 C-33.42708333 53.140625 -36.71354167 58.0703125 -40 63 C-41 60 -41 60 -40.109375 57.84375 C-39.43648437 56.68359375 -39.43648437 56.68359375 -38.75 55.5 C-38.31171875 54.7265625 -37.8734375 53.953125 -37.421875 53.15625 C-36 51 -36 51 -34.328125 49.40625 C-32.65668823 47.95887411 -32.65668823 47.95887411 -33 45 C-32.01 45 -31.02 45 -30 45 C-30 43.68 -30 42.36 -30 41 C-29.34 41 -28.68 41 -28 41 C-28.495 39.515 -28.495 39.515 -29 38 C-26.525 37.505 -26.525 37.505 -24 37 C-23.67 34.36 -23.34 31.72 -23 29 C-22.34 29 -21.68 29 -21 29 C-21 28.34 -21 27.68 -21 27 C-20.01 27 -19.02 27 -18 27 C-18 26.34 -18 25.68 -18 25 C-17.34 25 -16.68 25 -16 25 C-15.34 22.36 -14.68 19.72 -14 17 C-14.99 16.67 -15.98 16.34 -17 16 C-17 15.34 -17 14.68 -17 14 C-16.34 14 -15.68 14 -15 14 C-15 14.66 -15 15.32 -15 16 C-13.68 16 -12.36 16 -11 16 C-11.12375 14.88625 -11.12375 14.88625 -11.25 13.75 C-11 11 -11 11 -9.125 8.6875 C-7 7 -7 7 -5 7 C-4.67 6.01 -4.34 5.02 -4 4 C-3.34 4 -2.68 4 -2 4 C-2 3.01 -2 2.02 -2 1 C-1.34 0.67 -0.68 0.34 0 0 Z " fill="#1ECCE0" transform="translate(209,172)"/>
<path d="M0 0 C14.52 0 29.04 0 44 0 C44 0.66 44 1.32 44 2 C40.1784462 3.27385127 36.5931553 3.12353188 32.61328125 3.09765625 C31.79627243 3.0962413 30.97926361 3.09482635 30.13749695 3.09336853 C27.52912732 3.08777294 24.92084366 3.07522129 22.3125 3.0625 C20.54362103 3.05748443 18.77474072 3.05292162 17.00585938 3.04882812 C12.67053981 3.03780496 8.33528448 3.02054338 4 3 C3.67 4.32 3.34 5.64 3 7 C0 3.375 0 3.375 0 0 Z " fill="#E7E5E7" transform="translate(99,98)"/>
<path d="M0 0 C2 2 2 2 2 5 C-12.85 5 -27.7 5 -43 5 C-43 4.34 -43 3.68 -43 3 C-37.51922847 2.83219798 -32.03831026 2.67165799 -26.55712891 2.51782227 C-24.69281298 2.46447734 -22.82855257 2.40915398 -20.96435547 2.35180664 C-18.28365039 2.26968595 -15.60282573 2.1946995 -12.921875 2.12109375 C-12.08944275 2.09405869 -11.2570105 2.06702362 -10.39935303 2.03916931 C-9.22859222 2.00902489 -9.22859222 2.00902489 -8.03417969 1.97827148 C-7.00825714 1.94829323 -7.00825714 1.94829323 -5.96160889 1.91770935 C-3.85733339 2.00598495 -2.0208995 2.42346462 0 3 C0 2.01 0 1.02 0 0 Z " fill="#E4E4E4" transform="translate(255,257)"/>
<path d="M0 0 C0.97262787 0.00444122 1.94525574 0.00888245 2.94735718 0.01345825 C4.59884262 0.01368484 4.59884262 0.01368484 6.28369141 0.01391602 C7.4764267 0.02423859 8.66916199 0.03456116 9.89804077 0.04519653 C11.11599335 0.04802643 12.33394592 0.05085632 13.58880615 0.05377197 C17.4914621 0.06499647 21.3938913 0.09010531 25.29647827 0.11550903 C27.93709997 0.12553589 30.57772524 0.13466225 33.21835327 0.14285278 C39.70280607 0.16494322 46.18712598 0.19844311 52.67147827 0.24050903 C51.96304491 3.3540575 51.07141153 5.40571611 49.17147827 7.99050903 C48.50632202 8.91089966 48.50632202 8.91089966 47.82772827 9.84988403 C47.25538452 10.53824341 47.25538452 10.53824341 46.67147827 11.24050903 C46.34147827 11.24050903 46.01147827 11.24050903 45.67147827 11.24050903 C45.92147827 7.86550903 45.92147827 7.86550903 46.67147827 4.24050903 C47.99147827 3.58050903 49.31147827 2.92050903 50.67147827 2.24050903 C33.51147827 1.91050903 16.35147827 1.58050903 -1.32852173 1.24050903 C-1.32852173 1.90050903 -1.32852173 2.56050903 -1.32852173 3.24050903 C-2.31852173 2.91050903 -3.30852173 2.58050903 -4.32852173 2.24050903 C-2.32852173 0.24050903 -2.32852173 0.24050903 0 0 Z " fill="#2DC4D8" transform="translate(251.32852172851563,31.759490966796875)"/>
<path d="M0 0 C0.66 0.33 1.32 0.66 2 1 C1.70351562 1.56203125 1.40703125 2.1240625 1.1015625 2.703125 C-0.00943503 5.01967305 -0.83464706 7.30709092 -1.625 9.75 C-1.88539063 10.54921875 -2.14578125 11.3484375 -2.4140625 12.171875 C-2.60742188 12.77515625 -2.80078125 13.3784375 -3 14 C-3.99 13.67 -4.98 13.34 -6 13 C-5.67 14.32 -5.34 15.64 -5 17 C-5.99 17.33 -6.98 17.66 -8 18 C-8.66 17.67 -9.32 17.34 -10 17 C-11.20628008 19.33214148 -12.1654738 21.49642139 -13 24 C-15.0625 25.1875 -15.0625 25.1875 -17 26 C-15.61791193 22.09226876 -13.79890116 19.11956009 -11.3125 15.8125 C-7.44352761 10.60671631 -3.69836385 5.32795543 0 0 Z " fill="#18D4EB" transform="translate(154,173)"/>
<path d="M0 0 C0.33 0.66 0.66 1.32 1 2 C-0.19042851 4.08324989 -1.57393022 5.97842367 -2.96875 7.9296875 C-4.24193906 10.485711 -3.74028866 11.34044444 -3 14 C-5.43413634 16.87670658 -8.11641025 19.09265306 -11.0625 21.4375 C-14.06064235 24.05290077 -15.87677669 26.66350623 -18 30 C-18.66 30.33 -19.32 30.66 -20 31 C-14.7191628 19.98351665 -6.94482289 10.0090847 0 0 Z " fill="#23C7DA" transform="translate(183,129)"/>
<path d="M0 0 C0.33 0.66 0.66 1.32 1 2 C0.54625 2.7425 0.0925 3.485 -0.375 4.25 C-2.14037509 7.23755784 -2.60249874 9.58148917 -3 13 C-3.99 13.33 -4.98 13.66 -6 14 C-6.28875 14.5775 -6.5775 15.155 -6.875 15.75 C-8.92109375 19.84218749 -12.24618382 22.49745588 -16 25 C-14.51971809 20.74122104 -12.28644686 17.26758063 -9.6875 13.625 C-9.28668213 13.05499268 -8.88586426 12.48498535 -8.47290039 11.89770508 C-7.32046814 10.26146103 -6.16041939 8.63058932 -5 7 C-4.15695313 5.81083984 -4.15695313 5.81083984 -3.296875 4.59765625 C-2.20342441 3.06116964 -1.10284729 1.52975592 0 0 Z " fill="#14D0E8" transform="translate(98,256)"/>
<path d="M0 0 C0 4.08481881 -1.70119331 5.84704653 -4 9.1875 C-4.7425 10.27417969 -5.485 11.36085937 -6.25 12.48046875 C-6.8275 13.31191406 -7.405 14.14335937 -8 15 C-11.9115468 13.52041491 -13.2274524 11.46042529 -15.25 7.875 C-16.03117188 6.50988281 -16.03117188 6.50988281 -16.828125 5.1171875 C-17.21484375 4.41851562 -17.6015625 3.71984375 -18 3 C-17.401875 3.165 -16.80375 3.33 -16.1875 3.5 C-13.88655664 4.1114124 -13.88655664 4.1114124 -11 4 C-11 4.99 -11 5.98 -11 7 C-10.67 7.99 -10.34 8.98 -10 10 C-8.00016466 9.20882096 -8.00016466 9.20882096 -6 8 C-5.67 7.01 -5.34 6.02 -5 5 C-3.37347684 3.29413425 -1.70993434 1.6222454 0 0 Z " fill="#EBEEED" transform="translate(154,152)"/>
<path d="M0 0 C0.99 0.33 1.98 0.66 3 1 C2.67 2.32 2.34 3.64 2 5 C6.29143127 5.77610991 10.52584343 6.25184596 14.875 6.5625 C16.02742188 6.64628906 17.17984375 6.73007812 18.3671875 6.81640625 C19.23601562 6.87699219 20.10484375 6.93757813 21 7 C21 7.33 21 7.66 21 8 C12.75 8 4.5 8 -4 8 C-2 3 -2 3 0 0 Z " fill="#07D6EE" transform="translate(60,314)"/>
<path d="M0 0 C0 3.46453098 -0.66471603 4.37185299 -2.5546875 7.1953125 C-3.08707031 7.99324219 -3.61945313 8.79117188 -4.16796875 9.61328125 C-4.73128906 10.44214844 -5.29460937 11.27101563 -5.875 12.125 C-6.43058594 12.96160156 -6.98617188 13.79820313 -7.55859375 14.66015625 C-11.73305861 20.8665293 -11.73305861 20.8665293 -14 22 C-14 21.01 -14 20.02 -14 19 C-13.34 19 -12.68 19 -12 19 C-12 17.35 -12 15.7 -12 14 C-11.34 14 -10.68 14 -10 14 C-9.67 12.35 -9.34 10.7 -9 9 C-7.68 8.67 -6.36 8.34 -5 8 C-4.67 6.68 -4.34 5.36 -4 4 C-3.34 4 -2.68 4 -2 4 C-1.34 2.68 -0.68 1.36 0 0 Z " fill="#2BC9DA" transform="translate(268,85)"/>
<path d="M0 0 C0.33 0.66 0.66 1.32 1 2 C0.109375 4.09375 0.109375 4.09375 -1.25 6.5 C-1.68828125 7.2940625 -2.1265625 8.088125 -2.578125 8.90625 C-4 11 -4 11 -7 13 C-8.26393951 14.97623685 -8.26393951 14.97623685 -9.375 17.25 C-11.53617513 21.31616232 -13.92966053 24.57876459 -17 28 C-17.66 27.67 -18.32 27.34 -19 27 C-18.49210937 26.31035156 -17.98421875 25.62070312 -17.4609375 24.91015625 C-13.64927567 19.70659544 -9.93091467 14.47115107 -6.38671875 9.08203125 C-4.33321501 5.99888338 -2.17109115 3.00121424 0 0 Z " fill="#2BBED6" transform="translate(81,281)"/>
<path d="M0 0 C0 3.49336818 -0.69545146 4.39644434 -2.625 7.23046875 C-3.16640625 8.03291016 -3.7078125 8.83535156 -4.265625 9.66210938 C-5.12414062 10.91217773 -5.12414062 10.91217773 -6 12.1875 C-6.57234375 13.03248047 -7.1446875 13.87746094 -7.734375 14.74804688 C-9.15013971 16.83629982 -10.57218082 18.91997883 -12 21 C-12.33 20.01 -12.66 19.02 -13 18 C-12.05126676 16.26610821 -11.09386247 14.53521751 -10.05859375 12.8515625 C-8.6299085 10.35268129 -7.80594661 7.7536509 -7 5 C-5.68 5 -4.36 5 -3 5 C-3 3.68 -3 2.36 -3 1 C-2.01 0.67 -1.02 0.34 0 0 Z " fill="#21CADF" transform="translate(148,262)"/>
<path d="M0 0 C0.33 1.32 0.66 2.64 1 4 C0.01 4.33 -0.98 4.66 -2 5 C-2.69952271 6.65314555 -3.35885945 8.32334827 -4 10 C-5.42008586 12.19044132 -6.85775682 14.31782203 -8.375 16.4375 C-11.30870624 20.58869433 -14.19808943 24.75875182 -17 29 C-17.66 28.67 -18.32 28.34 -19 28 C-16.77778708 24.65427349 -14.55402596 21.30958189 -12.32885742 17.96582031 C-11.57290249 16.82938155 -10.81736298 15.69266633 -10.06225586 14.55566406 C-8.97360087 12.91658166 -7.8833019 11.27859155 -6.79296875 9.640625 C-6.1383667 8.65610352 -5.48376465 7.67158203 -4.80932617 6.65722656 C-3.2633079 4.38670129 -1.67080617 2.17950899 0 0 Z " fill="#2CC0D2" transform="translate(136,199)"/>
<path d="M0 0 C0 3.66825215 -0.97047871 4.82950243 -2.9921875 7.8515625 C-3.61480469 8.78484375 -4.23742187 9.718125 -4.87890625 10.6796875 C-5.53761719 11.65164062 -6.19632813 12.62359375 -6.875 13.625 C-7.52597656 14.6046875 -8.17695313 15.584375 -8.84765625 16.59375 C-13.73313673 23.86656837 -13.73313673 23.86656837 -16 25 C-15.625 22.5625 -15.625 22.5625 -15 20 C-14.34 19.67 -13.68 19.34 -13 19 C-12.896875 18.4225 -12.79375 17.845 -12.6875 17.25 C-12 15 -12 15 -9.5 12.5625 C-6.88172369 9.87876678 -6.31302824 8.6519961 -6 5 C-5.01 5 -4.02 5 -3 5 C-2.690625 4.360625 -2.38125 3.72125 -2.0625 3.0625 C-1 1 -1 1 0 0 Z " fill="#22CADD" transform="translate(253,107)"/>
<path d="M0 0 C1 3 1 3 0.125 5 C-0.24625 5.66 -0.6175 6.32 -1 7 C-1.33 7.99 -1.66 8.98 -2 10 C-3.62339805 11.70884005 -5.29319053 13.37446717 -7 15 C-7.598125 15.598125 -8.19625 16.19625 -8.8125 16.8125 C-9.204375 17.204375 -9.59625 17.59625 -10 18 C-10.66 17.67 -11.32 17.34 -12 17 C-10.18921503 14.3529891 -8.37608534 11.70759286 -6.5625 9.0625 C-6.04623047 8.30775391 -5.52996094 7.55300781 -4.99804688 6.77539062 C-4.50498047 6.05673828 -4.01191406 5.33808594 -3.50390625 4.59765625 C-2.82050171 3.60004272 -2.82050171 3.60004272 -2.12329102 2.58227539 C-1 1 -1 1 0 0 Z " fill="#EFF0F3" transform="translate(201,203)"/>
<path d="M0 0 C0.33 0.66 0.66 1.32 1 2 C0.31292969 3.01320312 -0.37414062 4.02640625 -1.08203125 5.0703125 C-1.99237411 6.42174932 -2.90251992 7.77331888 -3.8125 9.125 C-4.26431641 9.79015625 -4.71613281 10.4553125 -5.18164062 11.140625 C-7.22431922 14.1822778 -9.05675269 17.11455636 -10.6875 20.40625 C-12.13077127 23.25842894 -13.02813409 23.97521865 -16 25 C-14.4538304 20.40492293 -11.97199131 16.91797366 -9.125 13.0625 C-8.2516875 11.86655425 -7.3792821 10.66994556 -6.5078125 9.47265625 C-6.08790039 8.89660645 -5.66798828 8.32055664 -5.23535156 7.72705078 C-3.4233723 5.1938608 -1.70915162 2.60347514 0 0 Z " fill="#25C0D3" transform="translate(246,36)"/>
<path d="M0 0 C0.93134261 2.52143975 1.16007332 3.61526236 0.109375 6.140625 C-0.33921875 6.83671875 -0.7878125 7.5328125 -1.25 8.25 C-1.68828125 8.95640625 -2.1265625 9.6628125 -2.578125 10.390625 C-3.04734375 10.92171875 -3.5165625 11.4528125 -4 12 C-4.99 12 -5.98 12 -7 12 C-7.33 13.32 -7.66 14.64 -8 16 C-8.66 15.67 -9.32 15.34 -10 15 C-8.52235475 12.68651501 -7.04296381 10.37418021 -5.5625 8.0625 C-5.14162109 7.40314453 -4.72074219 6.74378906 -4.28710938 6.06445312 C-1.11328125 1.11328125 -1.11328125 1.11328125 0 0 Z " fill="#21CCDF" transform="translate(213,85)"/>
<path d="M0 0 C0 5.13465379 -3.76979137 8.69949373 -7.1875 12.3125 C-8.0846875 13.1478125 -8.0846875 13.1478125 -9 14 C-9.66 14.66 -10.32 15.32 -11 16 C-11.25 13.75 -11.25 13.75 -11 11 C-9.125 8.6875 -9.125 8.6875 -7 7 C-6.34 7 -5.68 7 -5 7 C-4.67 6.01 -4.34 5.02 -4 4 C-3.34 4 -2.68 4 -2 4 C-2 3.01 -2 2.02 -2 1 C-1.34 0.67 -0.68 0.34 0 0 Z " fill="#0FD4F5" transform="translate(209,172)"/>
<path d="M0 0 C1.32 0.33 2.64 0.66 4 1 C3.01 1 2.02 1 1 1 C0.773125 1.86625 0.54625 2.7325 0.3125 3.625 C-1.77177405 8.98456184 -5.233967 12.82264466 -10 16 C-8.91824321 12.93502244 -7.71638038 10.58291233 -5.875 7.875 C-3.72686611 5.15325846 -3.72686611 5.15325846 -4 2 C-2.68 2 -1.36 2 0 2 C0 1.34 0 0.68 0 0 Z " fill="#0BD8F3" transform="translate(250,33)"/>
<path d="M0 0 C0 3.7358326 -0.70691635 6.49020153 -2 10 C-4.625 12.4375 -4.625 12.4375 -7 14 C-7.66 13.67 -8.32 13.34 -9 13 C-7.68889201 11.01989841 -6.37618664 9.04088963 -5.0625 7.0625 C-4.50272461 6.21655273 -4.50272461 6.21655273 -3.93164062 5.35351562 C-1.11328125 1.11328125 -1.11328125 1.11328125 0 0 Z " fill="#19D0E7" transform="translate(108,241)"/>
<path d="M0 0 C0.33 0.66 0.66 1.32 1 2 C0.67 2.66 0.34 3.32 0 4 C0.66 4.33 1.32 4.66 2 5 C1 7 1 7 -1 8 C-1.66 7.67 -2.32 7.34 -3 7 C-4.20628008 9.33214148 -5.1654738 11.49642139 -6 14 C-8.0625 15.1875 -8.0625 15.1875 -10 16 C-8.55797524 11.84848662 -6.4989562 8.70021555 -3.875 5.1875 C-3.15054688 4.21167969 -2.42609375 3.23585937 -1.6796875 2.23046875 C-0.84824219 1.12638672 -0.84824219 1.12638672 0 0 Z " fill="#21CCDF" transform="translate(147,183)"/>
<path d="M0 0 C0 4.08481881 -1.70119331 5.84704653 -4 9.1875 C-4.7425 10.27417969 -5.485 11.36085937 -6.25 12.48046875 C-6.8275 13.31191406 -7.405 14.14335937 -8 15 C-9 12 -9 12 -9 8 C-8.38125 7.95875 -7.7625 7.9175 -7.125 7.875 C-6.42375 7.58625 -5.7225 7.2975 -5 7 C-4.29618843 5.01276732 -3.6288189 3.01222047 -3 1 C-2.01 0.67 -1.02 0.34 0 0 Z " fill="#21D0E5" transform="translate(220,156)"/>
<path d="M0 0 C0.66 0.33 1.32 0.66 2 1 C0.71389867 2.9829888 -0.57849139 4.96133376 -1.875 6.9375 C-2.59429687 8.03964844 -3.31359375 9.14179688 -4.0546875 10.27734375 C-6 13 -6 13 -8 14 C-7.67 12.02 -7.34 10.04 -7 8 C-6.01 8 -5.02 8 -4 8 C-4 6.02 -4 4.04 -4 2 C-3.34 1.67 -2.68 1.34 -2 1 C-1.34 1.33 -0.68 1.66 0 2 C0 1.34 0 0.68 0 0 Z " fill="#1DD0E1" transform="translate(127,292)"/>
<path d="M0 0 C0 4.21524569 -2.23622589 6.79863696 -4.5 10.1875 C-4.92925781 10.84169922 -5.35851562 11.49589844 -5.80078125 12.16992188 C-6.86110038 13.78396322 -7.92976153 15.39251881 -9 17 C-10 14 -10 14 -9.1796875 11.9140625 C-6.53844614 7.28002826 -4.000206 3.5430396 0 0 Z " fill="#29C8D9" transform="translate(178,218)"/>
<path d="M0 0 C0.33 0.66 0.66 1.32 1 2 C-2.96 7.94 -2.96 7.94 -7 14 C-7.66 12.68 -8.32 11.36 -9 10 C-8.34 9.34 -7.68 8.68 -7 8 C-6.71125 7.319375 -6.4225 6.63875 -6.125 5.9375 C-5 4 -5 4 -2.9375 3.4375 C-2.298125 3.293125 -1.65875 3.14875 -1 3 C-0.67 2.01 -0.34 1.02 0 0 Z " fill="#22C7DE" transform="translate(118,306)"/>
<path d="M0 0 C2 2 2 2 2 5 C-6.25 5 -14.5 5 -23 5 C-23 4.67 -23 4.34 -23 4 C-15.41 3.67 -7.82 3.34 0 3 C0 2.01 0 1.02 0 0 Z " fill="#D5D5D5" transform="translate(255,257)"/>
<path d="M0 0 C0.33 0.99 0.66 1.98 1 3 C0.07421875 4.6484375 0.07421875 4.6484375 -1.3125 6.375 C-3.42934051 9.144533 -4.88750483 11.66251449 -6 15 C-7.32 14.67 -8.64 14.34 -10 14 C-6.7 9.38 -3.4 4.76 0 0 Z " fill="#06DBEF" transform="translate(133,206)"/>
<path d="M0 0 C0 3.84308365 -1.30179208 5.41787428 -3.375 8.625 C-4.00148438 9.60726562 -4.62796875 10.58953125 -5.2734375 11.6015625 C-7 14 -7 14 -9 15 C-7.87548273 12.0280615 -6.77706209 9.66559313 -5 7 C-4.814375 5.7315625 -4.814375 5.7315625 -4.625 4.4375 C-4 2 -4 2 -1.9375 0.6875 C-1.298125 0.460625 -0.65875 0.23375 0 0 Z " fill="#21CBDC" transform="translate(296,43)"/>
<path d="M0 0 C0.70703125 1.73828125 0.70703125 1.73828125 1 4 C-0.36328125 6.10546875 -0.36328125 6.10546875 -2.3125 8.1875 C-3.26576172 9.22970703 -3.26576172 9.22970703 -4.23828125 10.29296875 C-6 12 -6 12 -8 13 C-6.53181332 9.89257577 -4.79975 7.09528261 -2.875 4.25 C-2.33617187 3.45078125 -1.79734375 2.6515625 -1.2421875 1.828125 C-0.62730469 0.92320313 -0.62730469 0.92320313 0 0 Z " fill="#22C4D1" transform="translate(229,61)"/>
<path d="M0 0 C3.17538332 0.34021964 4.02276865 1.02466604 6.25 3.4375 C8 6 8 6 8 8 C7.34 8 6.68 8 6 8 C5.34 7.01 4.68 6.02 4 5 C0.91634129 4.7497843 0.91634129 4.7497843 -2 5 C-1.34 3.35 -0.68 1.7 0 0 Z " fill="#EFF3F3" transform="translate(208,192)"/>
<path d="M0 0 C0.598125 0.165 1.19625 0.33 1.8125 0.5 C4.11344336 1.1114124 4.11344336 1.1114124 7 1 C7 4 7 4 6 7 C5.34 7 4.68 7 4 7 C2.02 3.535 2.02 3.535 0 0 Z " fill="#F3F3F3" transform="translate(136,155)"/>
<path d="M0 0 C0.33 0 0.66 0 1 0 C1 1.65 1 3.3 1 5 C0.34 5 -0.32 5 -1 5 C-1 5.99 -1 6.98 -1 8 C-4 10.1875 -4 10.1875 -7 12 C-5.48109469 7.44328408 -3.04597738 3.68276708 0 0 Z " fill="#1AC7DF" transform="translate(191,117)"/>
<path d="M0 0 C0.33 0.66 0.66 1.32 1 2 C0.06421005 4.35981813 -0.93347808 6.69631264 -2 9 C-2.99 9 -3.98 9 -5 9 C-5.66 10.32 -6.32 11.64 -7 13 C-7 9.16235973 -5.73464665 7.88513915 -3.5 4.8125 C-2.8503125 3.91144531 -2.200625 3.01039062 -1.53125 2.08203125 C-1.0259375 1.39496094 -0.520625 0.70789063 0 0 Z " fill="#29CCD9" transform="translate(200,104)"/>
<path d="M0 0 C0.66 0 1.32 0 2 0 C-0.70615034 9.59453303 -0.70615034 9.59453303 -5 13 C-5 12.01 -5 11.02 -5 10 C-4.34 10 -3.68 10 -3 10 C-3 8.35 -3 6.7 -3 5 C-2.34 5 -1.68 5 -1 5 C-0.67 3.35 -0.34 1.7 0 0 Z " fill="#18CDE7" transform="translate(259,94)"/>
<path d="M0 0 C0 3.63195496 -0.95453155 4.74713911 -3 7.6875 C-3.556875 8.49574219 -4.11375 9.30398437 -4.6875 10.13671875 C-5.120625 10.75160156 -5.55375 11.36648437 -6 12 C-7 10 -7 10 -7 6 C-6.01 6 -5.02 6 -4 6 C-4 5.34 -4 4.68 -4 4 C-3.34 4 -2.68 4 -2 4 C-2 3.01 -2 2.02 -2 1 C-1.34 0.67 -0.68 0.34 0 0 Z " fill="#23C9DD" transform="translate(282,64)"/>
<path d="M0 0 C0.99 0.33 1.98 0.66 3 1 C3.625 2.75 3.625 2.75 4 5 C4.185625 5.9075 4.37125 6.815 4.5625 7.75 C4.706875 8.4925 4.85125 9.235 5 10 C1.91910327 7.22719294 0.31224548 4.93673644 -1 1 C-0.67 0.67 -0.34 0.34 0 0 Z " fill="#ECEDED" transform="translate(188,222)"/>
<path d="M0 0 C0.33 0.66 0.66 1.32 1 2 C0.02616054 3.68208635 -0.97695052 5.34738161 -2 7 C-2.69579454 9.19130534 -2.69579454 9.19130534 -3 11 C-4.32 11.33 -5.64 11.66 -7 12 C-5.44298069 7.32894208 -2.91552627 3.91294315 0 0 Z " fill="#34C7D7" transform="translate(162,160)"/>
<path d="M0 0 C1.32 0.66 2.64 1.32 4 2 C3.67 3.65 3.34 5.3 3 7 C1.35 7 -0.3 7 -2 7 C-1.34 4.69 -0.68 2.38 0 0 Z " fill="#0CD6EC" transform="translate(107,315)"/>
<path d="M0 0 C0.33 0.66 0.66 1.32 1 2 C-0.98 4.97 -2.96 7.94 -5 11 C-5.66 10.67 -6.32 10.34 -7 10 C-3.535 5.05 -3.535 5.05 0 0 Z " fill="#2AC3D7" transform="translate(98,256)"/>
<path d="M0 0 C0.33 1.32 0.66 2.64 1 4 C-1.4375 6.75 -1.4375 6.75 -4 9 C-4.66 8.67 -5.32 8.34 -6 8 C-4.02 5.36 -2.04 2.72 0 0 Z " fill="#0ED7F1" transform="translate(67,304)"/>
<path d="M0 0 C0 4.38968456 -2.12805101 5.76905739 -5 9 C-5.66 8.67 -6.32 8.34 -7 8 C-6.21366078 6.85050412 -5.42073742 5.70551011 -4.625 4.5625 C-4.18414062 3.92441406 -3.74328125 3.28632813 -3.2890625 2.62890625 C-2 1 -2 1 0 0 Z " fill="#17C8DC" transform="translate(69,300)"/>
<path d="M0 0 C0.66 0 1.32 0 2 0 C1.75 3.375 1.75 3.375 1 7 C-1.0625 8.4375 -1.0625 8.4375 -3 9 C-3.33 8.34 -3.66 7.68 -4 7 C-3.01 7 -2.02 7 -1 7 C-1 5.68 -1 4.36 -1 3 C-0.34 3 0.32 3 1 3 C0.67 2.01 0.34 1.02 0 0 Z " fill="#16CEE7" transform="translate(180,210)"/>
<path d="M0 0 C-1.1858237 3.37503669 -2.27573689 5.64722731 -5 8 C-5 5.69 -5 3.38 -5 1 C-3 0 -3 0 0 0 Z " fill="#22D1E2" transform="translate(237,132)"/>
<path d="M0 0 C0.66 0 1.32 0 2 0 C0.73058503 3.91402949 -0.51167694 5.79072873 -4 8 C-4.66 7.34 -5.32 6.68 -6 6 C-5.01 6 -4.02 6 -3 6 C-2.690625 5.38125 -2.38125 4.7625 -2.0625 4.125 C-1.375 2.75 -0.6875 1.375 0 0 Z " fill="#0ED9F3" transform="translate(122,222)"/>
<path d="M0 0 C0 4.01474237 -1.66781767 5.81975137 -4 9 C-4.33 9 -4.66 9 -5 9 C-5 7.35 -5 5.7 -5 4 C-4.01 4 -3.02 4 -2 4 C-1.34 2.68 -0.68 1.36 0 0 Z " fill="#2BCCDD" transform="translate(187,205)"/>
<path d="M0 0 C0 3.99904969 -1.72586967 5.80200422 -4 9 C-4.33 7.68 -4.66 6.36 -5 5 C-4.01 4.67 -3.02 4.34 -2 4 C-2 3.01 -2 2.02 -2 1 C-1.34 0.67 -0.68 0.34 0 0 Z " fill="#27C8D7" transform="translate(209,172)"/>
<path d="M0 0 C0.99 0 1.98 0 3 0 C2.43628586 3.26954202 1.50037734 4.82575883 -1 7 C-0.67 4.69 -0.34 2.38 0 0 Z " fill="#19C9E3" transform="translate(298,36)"/>
<path d="M0 0 C0 2.83967231 -0.40267181 5.23735711 -1 8 C-2.32 7.67 -3.64 7.34 -5 7 C-3.35 4.69 -1.7 2.38 0 0 Z " fill="#25C3D9" transform="translate(108,241)"/>
<path d="M0 0 C0.33 0.99 0.66 1.98 1 3 C-0.9375 5.6875 -0.9375 5.6875 -3 8 C-3.66 7.67 -4.32 7.34 -5 7 C-3.35 4.69 -1.7 2.38 0 0 Z " fill="#E9ECEC" transform="translate(194,213)"/>
<path d="M0 0 C0.66 0.99 1.32 1.98 2 3 C0.35 4.65 -1.3 6.3 -3 8 C-3.66 7.67 -4.32 7.34 -5 7 C-3.35 4.69 -1.7 2.38 0 0 Z " fill="#07D8EF" transform="translate(169,152)"/>
</svg>
